<svg width="40" height="40" viewBox="0 0 40 40" fill="none" xmlns="http://www.w3.org/2000/svg">
<path d="M25.1857 18.6597L20.724 23.1214C20.6207 23.2247 20.5096 23.3042 20.3907 23.3597C20.2718 23.4153 20.1413 23.4425 19.999 23.4414C19.8568 23.4403 19.7263 23.4125 19.6074 23.358C19.4885 23.3036 19.3774 23.2242 19.274 23.1197L14.8124 18.658C14.7513 18.5958 14.6996 18.5242 14.6574 18.443C14.6163 18.3619 14.5957 18.2747 14.5957 18.1814C14.5957 17.9947 14.6568 17.8342 14.779 17.6997C14.9035 17.5653 15.0663 17.498 15.2674 17.498H24.729C24.9313 17.498 25.094 17.5669 25.2174 17.7047C25.3407 17.8425 25.4024 18.0025 25.4024 18.1847C25.4024 18.2314 25.3301 18.3892 25.1857 18.658" fill="black"/>
</svg>
