<svg width="92" height="92" viewBox="0 0 92 92" fill="none" xmlns="http://www.w3.org/2000/svg">
<path d="M68.9997 15.333C62.4447 15.333 58.458 16.598 56.158 17.6713C53.2063 16.2147 49.833 15.333 45.9997 15.333C42.1663 15.333 38.793 16.2147 35.8413 17.6713C33.5413 16.598 29.5547 15.333 22.9997 15.333C11.4997 15.333 3.83301 45.9997 3.83301 53.6663C3.83301 56.848 8.89301 59.7613 15.8697 60.9497C18.323 69.5363 29.8997 76.0913 44.083 76.6663V60.2597C41.8213 58.8413 38.333 56.273 38.333 53.6663C38.333 49.833 45.9997 49.833 45.9997 49.833C45.9997 49.833 53.6663 49.833 53.6663 53.6663C53.6663 56.273 50.178 58.8413 47.9163 60.2597V76.6663C62.0997 76.0913 73.6763 69.5363 76.1297 60.9497C83.1063 59.7613 88.1663 56.848 88.1663 53.6663C88.1663 45.9997 80.4997 15.333 68.9997 15.333ZM15.908 53.168C13.9913 52.708 12.4963 52.1713 11.4997 51.7497C12.458 41.1313 19.933 24.533 23.1913 22.9997C25.2613 22.9997 26.833 23.2297 28.2513 23.4213C20.2013 32.2763 17.0197 46.153 15.908 53.168ZM34.4997 45.9997C33.483 45.9997 32.508 45.5958 31.7891 44.8769C31.0702 44.158 30.6663 43.183 30.6663 42.1663C30.6663 40.0963 32.3913 38.333 34.4997 38.333C35.5163 38.333 36.4914 38.7369 37.2102 39.4558C37.9291 40.1747 38.333 41.1497 38.333 42.1663C38.333 44.313 36.608 45.9997 34.4997 45.9997ZM57.4997 45.9997C56.483 45.9997 55.508 45.5958 54.7891 44.8769C54.0702 44.158 53.6663 43.183 53.6663 42.1663C53.6663 40.0963 55.3913 38.333 57.4997 38.333C58.5163 38.333 59.4914 38.7369 60.2102 39.4558C60.9291 40.1747 61.333 41.1497 61.333 42.1663C61.333 44.313 59.608 45.9997 57.4997 45.9997ZM76.0913 53.168C74.9797 46.153 71.798 32.2763 63.748 23.4213C65.1663 23.2297 66.738 22.9997 68.808 22.9997C72.0663 24.533 79.5413 41.1313 80.4997 51.7497C79.5413 52.1713 78.0463 52.708 76.0913 53.168Z" fill="#575757"/>
</svg>
