<svg width="92" height="92" viewBox="0 0 92 92" fill="none" xmlns="http://www.w3.org/2000/svg">
<path fill-rule="evenodd" clip-rule="evenodd" d="M59.7346 5.44303C64.7639 7.13353 68.0414 11.8677 68.0414 18.0739C68.0414 21.9724 65.8257 25.5642 63.3532 28.4239C60.8117 31.3717 57.5994 34.0129 54.7857 36.0637L54.4292 36.3244C51.6999 38.3177 49.4459 39.966 45.9997 39.966C42.5497 39.966 40.3034 38.3177 37.5741 36.3244L37.2137 36.0637C34.4001 34.0129 31.1877 31.3717 28.6462 28.4277C26.1814 25.5642 23.9581 21.9724 23.9581 18.0739C23.9581 11.8677 27.2356 7.13737 32.2649 5.44303C36.5582 3.99787 41.5492 4.95237 45.9997 8.19153C50.4502 4.95237 55.4451 3.99787 59.7346 5.44303ZM57.9022 10.894C55.4029 10.0507 51.6731 10.595 47.9471 14.022C47.4165 14.5096 46.7222 14.7802 46.0016 14.7802C45.2811 14.7802 44.5868 14.5096 44.0562 14.022C40.3264 10.595 36.6004 10.0507 34.1011 10.894C31.7014 11.699 29.7081 14.0144 29.7081 18.0739C29.7081 19.864 30.8006 22.118 33.0009 24.671C35.1322 27.1435 37.9536 29.4895 40.6024 31.4177C43.8339 33.7752 44.6006 34.216 45.9997 34.216C47.3989 34.216 48.1656 33.7752 51.4009 31.4177C54.0459 29.4895 56.8672 27.1435 58.9986 24.671C61.2027 22.118 62.2952 19.864 62.2952 18.0739C62.2952 14.0105 60.298 11.699 57.9022 10.894ZM33.2884 55.3837C40.4414 53.996 48.0965 54.3104 54.2951 58.0057C55.1614 58.5232 55.9817 59.171 56.6909 59.9684C58.1322 61.586 58.8759 63.5985 58.9104 65.6149C59.6413 65.1395 60.3786 64.6195 61.1222 64.0547L68.0529 58.8222C69.7892 57.5479 71.8868 56.8608 74.0406 56.8608C76.1943 56.8608 78.2919 57.5479 80.0282 58.8222C83.229 61.2372 84.5094 65.5804 82.2132 69.2565C80.5841 71.8709 78.1307 75.4857 75.6314 77.801C73.1014 80.1394 69.5095 82.1059 66.7917 83.4207C63.4874 85.0154 59.9224 85.8932 56.4532 86.4567C49.3616 87.6067 41.9862 87.4265 34.9789 85.9852C31.3652 85.2422 27.6857 84.8659 23.9964 84.862H15.3331C14.5706 84.862 13.8393 84.5591 13.3001 84.02C12.761 83.4808 12.4581 82.7495 12.4581 81.987C12.4581 81.2245 12.761 80.4933 13.3001 79.9541C13.8393 79.4149 14.5706 79.112 15.3331 79.112H23.9964C28.0674 79.112 32.1806 79.5337 36.1404 80.354C42.5274 81.6646 49.0988 81.8088 55.5371 80.7795C58.7111 80.2659 61.678 79.503 64.2924 78.2419C66.9105 76.9769 69.8545 75.3132 71.7214 73.5805C73.6112 71.8325 75.7234 68.8004 77.3372 66.2167C77.824 65.4347 77.7551 64.3077 76.5629 63.4069C75.8252 62.8854 74.944 62.6054 74.0406 62.6054C73.1371 62.6054 72.2559 62.8854 71.5182 63.4069L64.5914 68.6432C61.8237 70.7324 58.4197 72.9672 54.1992 73.638C53.7571 73.7093 53.3136 73.7719 52.869 73.8259C52.6493 73.8642 52.4206 73.8897 52.1829 73.9025C49.72 74.1416 47.2398 74.1416 44.7769 73.9025C44.3951 73.8749 44.0226 73.7712 43.6814 73.5976C43.3401 73.4241 43.037 73.1842 42.7898 72.8919C42.5425 72.5996 42.3561 72.2609 42.2415 71.8956C42.1269 71.5303 42.0865 71.1459 42.1225 70.7647C42.1584 70.3836 42.2702 70.0135 42.4511 69.6761C42.6321 69.3388 42.8786 69.0409 43.1762 68.8001C43.4738 68.5593 43.8165 68.3804 44.1842 68.2738C44.5519 68.1672 44.9371 68.1351 45.3174 68.1794C47.7247 68.4055 49.8791 68.3557 51.7114 68.1679L51.8264 68.1564C52.184 67.9344 52.488 67.6358 52.7163 67.2822C52.9445 66.9285 53.0915 66.5286 53.1465 66.1113C53.2015 65.694 53.1632 65.2697 53.0343 64.8689C52.9055 64.4682 52.6893 64.1011 52.4014 63.794C52.0939 63.4599 51.7387 63.1731 51.3472 62.943C46.8201 60.2405 40.771 59.792 34.3809 61.0264C28.1385 62.2795 22.2209 64.8044 16.9967 68.4439C16.6886 68.6623 16.3405 68.818 15.9723 68.9019C15.6041 68.9859 15.2229 68.9965 14.8506 68.9331C14.4782 68.8698 14.122 68.7337 13.8023 68.5327C13.4825 68.3316 13.2055 68.0696 12.9871 67.7615C12.7686 67.4534 12.6129 67.1054 12.529 66.7371C12.445 66.3689 12.4344 65.9877 12.4978 65.6154C12.6258 64.8634 13.0472 64.1931 13.6694 63.7519C19.5625 59.6402 26.2419 56.7912 33.2884 55.3837Z" fill="#575757"/>
</svg>
