<svg width="92" height="92" viewBox="0 0 92 92" fill="none" xmlns="http://www.w3.org/2000/svg">
<path d="M38.3337 7.66699H53.667C55.7003 7.66699 57.6504 8.47473 59.0881 9.91251C60.5259 11.3503 61.3337 13.3003 61.3337 15.3337V23.0003H76.667C78.7003 23.0003 80.6504 23.8081 82.0881 25.2458C83.5259 26.6836 84.3337 28.6337 84.3337 30.667V72.8337C84.3337 74.867 83.5259 76.817 82.0881 78.2548C80.6504 79.6926 78.7003 80.5003 76.667 80.5003H15.3337C13.3003 80.5003 11.3503 79.6926 9.91251 78.2548C8.47473 76.817 7.66699 74.867 7.66699 72.8337V30.667C7.66699 26.412 11.0787 23.0003 15.3337 23.0003H30.667V15.3337C30.667 11.0787 34.0787 7.66699 38.3337 7.66699ZM53.667 23.0003V15.3337H38.3337V23.0003H53.667Z" fill="#89B66B"/>
</svg>
